<?xml version="1.0" encoding="UTF-8"?><svg xmlns="http://www.w3.org/2000/svg" viewBox="0 0 1319.49 608.68"><defs><style>.d {
  font-family: Kamber-Regular, Kamber;
  font-size: 123.57px;
  fill: #fff;
  stroke: #fff;
}
.d,
.e {
  fill: #ffd452;
}
.f {
  fill: #77d480;
}
.g {
  fill: #6dc1ff;
}
.h {
  fill: #bd75f0;
}
.i {
  fill: #f379a2;
}
.j {
  fill: #faaa3a;
}
.k {
  letter-spacing: 0em;
}
</style></defs><g id="a"/><g id="b"><g><g><path class="i" d="M297.05,129.08c-5.39-7.7-15.59-10.99-23.29-5.6-7.69,5.38-8.08,16.12-2.7,23.8l49.23,70.33c5.46,7.79,15.78,11.47,23.57,6.01,7.81-5.47,7.88-16.4,2.41-24.22l-49.23-70.32Z"/><path class="e" d="M482.82,129.67c5.39-7.7,15.59-10.98,23.28-5.59,7.68,5.38,8.09,16.11,2.71,23.79l-48.83,69.75c-5.45,7.79-15.78,11.45-23.56,6-7.81-5.47-7.89-16.39-2.42-24.21l48.82-69.75Z"/><path class="g" d="M374.07,108.14c0-9.39,6.47-17.94,15.86-17.94s15.86,8.55,15.86,17.94v85.15c0,9.51-6.35,18.43-15.86,18.43s-15.86-8.9-15.86-18.44V108.14Z"/><path class="f" d="M374.07,414.9c0-9.39,6.47-17.94,15.86-17.94s15.86,8.55,15.86,17.94v85.15c0,9.51-6.35,18.43-15.86,18.43s-15.86-8.9-15.86-18.44v-85.15Z"/><path class="h" d="M460.19,396.16c-5.39-7.69-15.59-10.97-23.27-5.59-7.68,5.38-8.09,16.1-2.71,23.79l48.62,69.46c5.45,7.79,15.77,11.45,23.56,5.99,7.81-5.47,7.89-16.39,2.43-24.2l-48.62-69.45Z"/><path class="j" d="M321.18,396.17c5.39-7.7,15.59-10.99,23.28-5.6,7.69,5.38,8.09,16.11,2.7,23.8l-49.11,70.15c-5.46,7.79-15.78,11.47-23.57,6.01-7.81-5.47-7.88-16.4-2.41-24.21l49.1-70.15Z"/><path fill="#fff" d="M133.87,373.46c17.76,0,31.46-3.44,41.1-10.34,9.64-6.89,14.46-17.15,14.46-30.78,0-11.02-4.44-19.45-13.32-25.26-8.72-5.97-19.75-10.64-33.06-14.01-11.02-2.76-18.83-5.21-23.42-7.35-4.59-2.14-6.89-5.05-6.89-8.73,0-3.37,1.84-6.05,5.51-8.04,3.67-2.14,8.65-3.22,14.93-3.22,7.19,0,14.24,1.53,21.12,4.6,7.04,3.06,12.78,6.51,17.22,10.34,6.58-5.82,11.02-13.63,13.32-23.43-15-11.64-32.22-17.46-51.66-17.46-16.38,0-29.16,3.67-38.35,11.02-9.19,7.2-13.78,16.77-13.78,28.71,0,20.06,15.62,33.38,46.84,39.97,10.26,2.14,17.68,4.36,22.27,6.66,4.74,2.14,7.12,5.21,7.12,9.19s-1.91,6.81-5.74,8.96c-3.83,2.14-9.19,3.22-16.07,3.22-7.81,0-15.84-1.68-24.11-5.05-8.27-3.52-15.16-7.73-20.67-12.63-6.89,7.04-11.63,15.01-14.24,23.89,6.73,6.28,15.08,11.18,25.03,14.7,10.1,3.37,20.9,5.05,32.38,5.05"/><path fill="#fff" d="M263.59,345.21c4.9,0,9.41-1.45,13.55-4.36,4.29-3.06,7.73-7.43,10.33-13.09,2.6-5.82,3.9-12.79,3.9-20.9,0-7.66-1.38-14.39-4.13-20.21-2.6-5.82-6.28-10.34-11.02-13.55-4.59-3.37-9.8-5.05-15.62-5.05-6.12,0-11.79,1.84-16.99,5.51-5.05,3.68-9.03,8.12-11.94,13.32v39.74c8.88,12.4,19.52,18.6,31.92,18.6m4.74-103.59c9.34,0,16.35,2.58,24.93,8.25,8.57,5.51,14.28,12.96,19.64,23.22,5.36,10.11,6.8,20.6,6.8,33.77,0,10.72-1.46,20.4-5.29,30.66-4.53,9.82-8.35,15.17-16.62,21.91-8.11,6.59-15.86,9.82-27.95,10.58-7.54,.47-27.6-1.06-38.16-10.09v56.12c-4.75,1.07-9.8,1.61-15.16,1.61-4.75,0-10.33-.54-16.76-1.61V243.46c4.75-1.23,10.1-1.84,16.07-1.84s11.1,.61,15.84,1.84v11.71c9.49-10.26,21.96-13.55,36.65-13.55"/><path fill="#fff" d="M382.53,350.03c10.26,0,18.37-2.83,24.34-8.5,5.97-5.82,9.49-12.4,10.56-19.75-3.52-2.3-7.88-4.14-13.09-5.51-5.05-1.53-10.72-2.3-16.99-2.3-7.5,0-13.85,1.53-19.06,4.6-5.05,2.91-7.58,7.58-7.58,14.01,0,5.36,2.07,9.65,6.2,12.86,4.29,3.06,9.49,4.59,15.62,4.59m1.15-110.02c10.87,0,21.2,1.84,31,5.51,9.8,3.52,17.76,9.03,23.88,16.54,6.28,7.35,9.41,16.54,9.41,27.56v80.16c-5.66,1.23-10.72,1.84-15.16,1.84s-9.34-.61-15.16-1.84v-16.08c-8.57,13.17-22.27,19.75-41.1,19.75-8.11,0-15.84-1.38-23.19-4.14-7.2-2.91-13.17-7.5-17.91-13.78-4.59-6.28-6.89-14.32-6.89-24.12,0-14.39,4.82-24.88,14.47-31.47,9.64-6.58,21.43-9.88,35.36-9.88,15.16,0,28.32,2.98,39.49,8.96v-8.5c0-6.43-3.14-11.79-9.41-16.08-6.12-4.29-14.39-6.43-24.8-6.43-5.51,0-11.17,.84-16.99,2.53-5.82,1.69-10.33,3.52-13.55,5.51-3.83-2.76-6.81-6.13-8.96-10.11-1.99-4.14-3.52-8.88-4.59-14.24,13.32-7.81,28.01-11.72,44.09-11.72"/><path fill="#fff" d="M526.96,242.64c5.66,0,11.25,.84,16.76,2.53,5.51,1.53,10.33,3.68,14.46,6.43-.57,6.58-1.74,11.66-4.34,16.41-2.6,4.59-5.38,7.2-10.12,11.33-5.2-4.14-12.14-6.05-19.33-6.05-9.8,0-17.33,6.48-22.69,14.6-5.21,8.12-7.81,20.37-7.81,36.75v44.33c-5.66,1.22-10.64,1.84-14.92,1.84s-9.11-.61-14.93-1.84v-126.33c4.9-1.23,9.87-1.84,14.93-1.84s10.18,.61,14.92,1.84v22.51c6.74-15.01,17.76-22.51,33.07-22.51"/><path fill="#fff" d="M642.96,304.32l47.76,46.86c-2.75,4.29-6.2,8.19-10.33,11.71-3.98,3.52-8.5,6.35-13.55,8.5l-49.37-52.6h-16.99v50.99c-5.66,1.23-10.94,1.84-15.84,1.84s-10.41-.61-16.07-1.84V205.62c5.66-1.22,11.02-1.84,16.07-1.84s10.18,.61,15.84,1.84v83.55h14.7l45.01-55.58c11.18,4.44,20.13,10.72,26.87,18.83l-44.09,51.91Z"/></g><text class="d" transform="translate(722.24 368.88)"><tspan x="0" y="0">summ</tspan><tspan class="k" x="384.53" y="0">e</tspan><tspan x="457.31" y="0">r</tspan></text></g></g><g id="c"/></svg>