<?xml version="1.0" standalone="no"?>
<!DOCTYPE svg PUBLIC "-//W3C//DTD SVG 20010904//EN"
 "http://www.w3.org/TR/2001/REC-SVG-20010904/DTD/svg10.dtd">
<svg version="1.0" xmlns="http://www.w3.org/2000/svg"
 width="860.000000pt" height="860.000000pt" viewBox="0 0 860.000000 860.000000"
 preserveAspectRatio="xMidYMid meet">
<metadata>
Created by potrace 1.14, written by Peter Selinger 2001-2017
</metadata>
<g transform="translate(0.000000,860.000000) scale(0.100000,-0.100000)"
fill="#000000" stroke="none">
<path d="M4311 7277 c-46 -15 -105 -77 -128 -134 -17 -45 -18 -91 -18 -693 1
-355 3 -656 6 -670 23 -101 117 -189 204 -190 88 0 167 54 206 143 l23 52 1
655 c0 603 -1 659 -18 701 -44 114 -162 173 -276 136z"/>
<path d="M2815 6852 c-85 -28 -145 -114 -145 -208 0 -68 38 -132 275 -471 134
-192 292 -418 352 -503 134 -192 165 -227 228 -256 175 -82 343 62 292 251
-10 41 -62 135 -100 180 -8 9 -125 177 -238 340 -110 158 -308 441 -316 450
-4 6 -23 33 -42 60 -54 78 -92 116 -146 141 -49 23 -116 30 -160 16z"/>
<path d="M5847 6848 c-49 -10 -85 -29 -122 -65 -31 -30 -42 -45 -343 -475
-103 -147 -193 -275 -200 -285 -211 -296 -232 -336 -232 -426 1 -176 181 -265
334 -164 42 28 75 67 169 203 65 93 123 176 130 184 7 9 30 42 53 75 22 33 67
98 100 144 32 45 66 93 74 105 8 11 66 95 130 186 64 91 124 183 134 205 24
51 26 157 4 200 -46 87 -139 133 -231 113z"/>
<path d="M7000 5707 c-3 -3 -27 -8 -54 -11 -27 -4 -53 -9 -56 -11 -4 -2 -7
-519 -7 -1149 l0 -1145 22 -5 c108 -27 286 -27 403 -1 l22 5 0 355 c0 348 0
355 20 356 137 5 213 0 228 -13 10 -8 69 -70 132 -137 63 -68 129 -138 145
-156 17 -17 84 -89 150 -159 66 -71 150 -160 186 -198 l65 -71 40 19 c89 41
216 149 273 231 l22 33 -78 76 c-281 275 -583 575 -583 580 0 5 128 160 165
200 5 6 28 33 50 60 22 26 47 55 55 64 8 9 32 37 53 63 21 25 43 52 50 59 7 7
48 56 92 108 44 52 90 106 103 120 46 50 46 53 -16 112 -69 66 -153 124 -245
169 l-68 34 -31 -35 c-17 -19 -83 -100 -147 -180 -64 -80 -118 -147 -121 -150
-4 -3 -33 -39 -65 -80 -33 -41 -62 -77 -66 -80 -3 -3 -49 -60 -102 -126 -54
-67 -105 -123 -115 -126 -9 -2 -55 -3 -102 -3 l-85 0 -3 586 -2 586 -59 10
c-64 10 -263 17 -271 10z"/>
<path d="M688 5205 c-2 -2 -31 -6 -65 -10 -114 -11 -224 -50 -318 -109 -56
-37 -155 -129 -155 -146 0 -5 -6 -15 -13 -22 -38 -41 -75 -179 -71 -273 3 -83
13 -127 44 -191 80 -164 254 -273 554 -346 387 -94 466 -134 466 -238 0 -64
-46 -115 -132 -146 -53 -19 -221 -26 -303 -13 -151 25 -358 120 -477 221 -19
17 -22 16 -62 -32 -52 -62 -101 -143 -133 -220 -28 -72 -29 -71 61 -135 139
-98 312 -164 501 -193 86 -12 424 -7 490 8 33 8 62 14 65 15 36 7 129 45 179
73 60 33 143 106 184 162 50 69 83 222 74 344 -11 141 -76 245 -209 329 -123
79 -246 128 -482 192 -314 85 -375 120 -376 219 0 79 107 143 253 149 72 4
191 -14 262 -38 68 -23 216 -100 261 -136 20 -16 40 -29 45 -29 11 0 91 98
116 141 26 46 63 144 63 169 0 36 -190 147 -334 196 -108 37 -220 55 -358 59
-70 2 -128 2 -130 0z"/>
<path d="M4237 5204 c-1 -1 -35 -4 -76 -8 -40 -3 -90 -10 -110 -15 -20 -6 -47
-12 -61 -14 -93 -17 -305 -112 -305 -137 -2 -55 67 -216 113 -265 66 -70 64
-69 119 -42 48 24 128 53 174 63 100 21 133 25 204 25 177 0 297 -39 395 -127
57 -52 82 -114 85 -209 1 -44 0 -83 -2 -87 -2 -4 -31 6 -66 22 -59 27 -146 55
-198 65 -13 3 -35 7 -49 10 -64 12 -121 16 -219 17 -127 0 -182 -6 -280 -33
-293 -79 -434 -255 -433 -539 0 -109 20 -208 58 -283 40 -78 156 -188 245
-230 120 -57 193 -71 364 -71 83 0 161 2 175 6 175 43 293 113 371 221 l29 40
1 -29 c0 -16 0 -66 -1 -111 -1 -90 -5 -85 78 -98 70 -11 189 -13 240 -4 26 5
61 11 78 14 l30 5 -1 608 c-1 334 -5 618 -9 632 -3 14 -9 41 -12 60 -9 46 -65
150 -111 208 -151 184 -433 299 -746 306 -43 0 -79 1 -80 0z m278 -1050 c77
-15 181 -50 223 -76 17 -11 32 -21 32 -23 0 -1 -9 -32 -20 -68 -32 -104 -128
-220 -220 -267 -101 -52 -292 -69 -380 -34 -101 40 -156 99 -169 183 -23 148
57 247 233 286 71 16 215 16 301 -1z"/>
<path d="M2657 5184 c-1 -1 -33 -4 -72 -8 -91 -8 -115 -12 -189 -38 -63 -22
-139 -66 -191 -112 l-30 -26 -3 80 c-2 44 -6 80 -10 81 -4 0 -27 3 -52 7 -94
15 -349 6 -379 -13 -4 -2 -7 -545 -7 -1206 l1 -1203 30 -8 c43 -13 300 -17
363 -6 l52 10 0 388 0 389 83 -43 c72 -37 111 -49 217 -71 157 -33 360 -17
476 36 102 47 203 127 275 219 80 100 146 261 167 404 12 86 8 405 -7 466 -29
126 -74 226 -151 340 -85 126 -230 236 -373 285 -37 12 -193 35 -200 29z m40
-393 c125 -46 213 -138 267 -283 53 -139 55 -333 5 -481 -89 -268 -333 -366
-581 -235 -54 29 -131 96 -190 165 l-28 33 0 281 0 280 29 42 c65 94 166 173
257 200 70 22 178 21 241 -2z"/>
<path d="M5505 5185 c-5 -2 -27 -6 -47 -10 l-37 -6 -1 -884 c0 -487 1 -885 3
-885 1 0 38 -6 82 -13 100 -16 229 -12 308 9 4 1 11 2 17 3 5 1 9 145 9 374 0
384 2 408 28 542 39 202 155 357 305 408 87 29 224 11 321 -41 l49 -26 57 59
c82 85 125 180 134 295 2 32 -2 37 -48 62 -61 34 -188 76 -258 85 -62 8 -176
9 -233 1 -113 -15 -252 -118 -322 -238 -36 -63 -33 -73 -33 121 l0 126 -56 12
c-51 10 -253 14 -278 6z"/>
<path d="M3559 3115 c-69 -22 -117 -72 -254 -270 -68 -99 -133 -191 -142 -204
-18 -23 -33 -45 -162 -233 -85 -122 -218 -310 -231 -325 -5 -7 -10 -17 -10
-23 0 -5 -4 -10 -9 -10 -5 0 -22 -25 -37 -56 -34 -70 -39 -169 -10 -224 23
-43 57 -80 74 -80 6 0 12 -4 12 -9 0 -5 15 -12 33 -16 87 -21 178 7 242 75 19
19 111 145 205 280 94 135 178 254 185 265 8 11 38 54 67 95 29 42 67 95 83
118 17 24 63 89 103 145 40 56 84 126 98 155 59 121 25 249 -79 303 -51 27
-112 32 -168 14z"/>
<path d="M5100 3118 c-88 -24 -144 -104 -144 -203 1 -78 21 -121 126 -270 46
-66 104 -149 129 -185 25 -36 103 -146 172 -245 69 -99 163 -234 209 -299 107
-154 136 -186 198 -220 99 -54 211 -29 275 62 27 40 30 51 30 120 0 55 -6 87
-19 112 -15 28 -207 307 -445 645 -19 28 -88 127 -154 220 -65 94 -133 184
-151 202 -59 56 -152 82 -226 61z"/>
<path d="M4303 2983 c-49 -19 -109 -88 -124 -141 -11 -38 -14 -180 -14 -702
l1 -655 23 -47 c45 -92 132 -145 220 -134 74 9 128 52 172 136 l23 45 2 650
c1 679 0 699 -43 764 -55 86 -168 122 -260 84z"/>
</g>
</svg>
